#tb 0: 1/25
0,          0,          0,        1,    38016, 0xbf5f1df5
0,          1,          1,        1,    38016, 0x8de61f39
0,          2,          2,        1,    38016, 0xaeec0a18
0,          3,          3,        1,    38016, 0x386c2599
0,          4,          4,        1,    38016, 0x8fcf2df0
0,          5,          5,        1,    38016, 0x34fe57ec
0,          6,          6,        1,    38016, 0x7e6c5e1a
0,          7,          7,        1,    38016, 0x8f319659
0,          8,          8,        1,    38016, 0x1e1291e2
0,          9,          9,        1,    38016, 0x97e9bf55
0,         10,         10,        1,    38016, 0x35bcad1a
0,         11,         11,        1,    38016, 0xea39d354
0,         12,         12,        1,    38016, 0xca7db081
0,         13,         13,        1,    38016, 0x2c069b6c
0,         14,         14,        1,    38016, 0x32f86a99
0,         15,         15,        1,    38016, 0xb4019668
0,         16,         16,        1,    38016, 0x04038324
0,         17,         17,        1,    38016, 0xe4f0b032
0,         18,         18,        1,    38016, 0xe6119a63
0,         19,         19,        1,    38016, 0xdf17b9fa
0,         20,         20,        1,    38016, 0xe199a348
0,         21,         21,        1,    38016, 0x6704b749
0,         22,         22,        1,    38016, 0x33fc7592
0,         23,         23,        1,    38016, 0xc0c371b2
0,         24,         24,        1,    38016, 0x017628aa
0,         25,         25,        1,    38016, 0xa46b3ab5
0,         26,         26,        1,    38016, 0x216f1fdb
0,         27,         27,        1,    38016, 0x28c54669
0,         28,         28,        1,    38016, 0x070c4ac1
0,         29,         29,        1,    38016, 0x4d4c6765
0,         30,         30,        1,    38016, 0xb496626c
0,         31,         31,        1,    38016, 0x9f767057
0,         32,         32,        1,    38016, 0xe2bc4de1
